<?xml version="1.0" encoding="utf-8"?>
<!-- Generator: Adobe Illustrator 17.0.0, SVG Export Plug-In . SVG Version: 6.00 Build 0)  -->
<!DOCTYPE svg PUBLIC "-//W3C//DTD SVG 1.1//EN" "http://www.w3.org/Graphics/SVG/1.1/DTD/svg11.dtd">
<svg version="1.1" id="图层_1" xmlns="http://www.w3.org/2000/svg" xmlns:xlink="http://www.w3.org/1999/xlink" x="0px" y="0px"
	 width="135.01px" height="14.99px" viewBox="0 0 135.01 14.99" enable-background="new 0 0 135.01 14.99" xml:space="preserve">
<g>
	<g>
		<path fill="#FFFFFF" d="M-0.02,7.407c0-3.962,2.492-7.371,7.23-7.371c1.792,0,3.213,0.534,4.717,1.827
			c0.556,0.513,0.618,1.417,0.062,1.992c-0.556,0.493-1.401,0.431-1.895-0.062c-0.844-0.883-1.71-1.13-2.884-1.13
			c-3.172,0-4.696,2.238-4.696,4.743c0,2.547,1.503,4.888,4.696,4.888c1.174,0,2.266-0.473,3.213-1.314
			c0.638-0.493,1.524-0.246,1.895,0.247c0.33,0.451,0.494,1.211-0.227,1.93c-1.442,1.335-3.172,1.602-4.882,1.602
			C2.225,14.759-0.02,11.371-0.02,7.407z"/>
		<path fill="#FFFFFF" d="M20.819,14.715c-3.705,0.162-7.551-2.327-7.551-7.286c0-4.98,3.846-7.429,7.551-7.429
			c3.505,0.182,7.171,2.631,7.171,7.429C27.99,12.226,24.324,14.715,20.819,14.715z M20.598,2.631c-2.243,0-4.687,1.599-4.687,4.797
			c0,3.178,2.444,4.797,4.687,4.797c2.304,0,4.767-1.619,4.767-4.797C25.365,4.23,22.902,2.631,20.598,2.631z"/>
		<path fill="#FFFFFF" d="M35.708,1.574c0-1.742,2.712-1.742,2.712,0v8.19c0,3.256-1.541,5.226-5.096,5.226
			c-1.747,0-3.206-0.477-4.48-2.136c-1.048-1.265,0.925-3.09,1.993-1.763c0.863,1.078,1.788,1.327,2.692,1.286
			c1.151-0.041,2.158-0.56,2.178-2.613V1.574z"/>
		<path fill="#FFFFFF" d="M48.384,14.715c-3.706,0.162-7.551-2.327-7.551-7.286c0-4.98,3.846-7.429,7.551-7.429
			c3.505,0.182,7.171,2.631,7.171,7.429C55.554,12.226,51.889,14.715,48.384,14.715z M48.163,2.631
			c-2.243,0-4.687,1.599-4.687,4.797c0,3.178,2.444,4.797,4.687,4.797c2.304,0,4.767-1.619,4.767-4.797
			C52.93,4.23,50.467,2.631,48.163,2.631z"/>
		<path fill="#FFFFFF" d="M56.445,2.223c-1.11-1.406,1.213-3.021,2.302-1.49l3.781,5.749l3.842-5.749
			c1.089-1.532,3.329,0,2.26,1.406l-4.808,6.987v4.323c0.185,1.825-2.712,1.825-2.712,0V9.126L56.445,2.223z"/>
	</g>
	<g>
		<path fill="#EC664F" d="M88.159,8.195v5.29h-0.661V2.754h6.733v0.571h-6.072v4.299h5.471v0.571H88.159z"/>
		<path fill="#EC664F" d="M95.253,4.302V2.754h0.571v1.548H95.253z M95.253,13.485V5.76h0.571v7.725H95.253z"/>
		<path fill="#EC664F" d="M97.643,5.76h0.571v1.653h0.03c0.1-0.29,0.243-0.549,0.428-0.774c0.185-0.225,0.401-0.418,0.646-0.579
			c0.245-0.16,0.513-0.28,0.804-0.361c0.29-0.08,0.586-0.12,0.887-0.12c0.451,0,0.834,0.055,1.15,0.165
			c0.316,0.11,0.573,0.256,0.774,0.436c0.201,0.18,0.358,0.383,0.474,0.609c0.115,0.225,0.198,0.453,0.248,0.684
			c0.05,0.231,0.08,0.454,0.09,0.669c0.01,0.216,0.015,0.404,0.015,0.564v4.779h-0.571V8.6c0-0.2-0.015-0.443-0.045-0.729
			c-0.03-0.286-0.118-0.561-0.263-0.827c-0.145-0.265-0.366-0.493-0.661-0.684c-0.296-0.19-0.704-0.286-1.225-0.286
			c-0.431,0-0.819,0.08-1.165,0.241c-0.346,0.16-0.639,0.383-0.879,0.669c-0.24,0.285-0.423,0.626-0.549,1.022
			c-0.125,0.396-0.188,0.829-0.188,1.3v4.178h-0.571V5.76z"/>
		<path fill="#EC664F" d="M111.14,12.057c0,0.11,0.002,0.221,0.007,0.331c0.005,0.11,0.023,0.21,0.053,0.301
			c0.03,0.09,0.08,0.163,0.15,0.218c0.07,0.056,0.17,0.083,0.301,0.083c0.1,0,0.241-0.015,0.421-0.045v0.481
			c-0.08,0.02-0.158,0.035-0.233,0.045c-0.075,0.009-0.153,0.015-0.233,0.015c-0.231,0-0.413-0.03-0.549-0.09
			c-0.135-0.06-0.238-0.14-0.308-0.241c-0.07-0.1-0.118-0.218-0.143-0.353c-0.025-0.135-0.037-0.283-0.037-0.443v-0.406h-0.03
			c-0.09,0.231-0.22,0.448-0.391,0.654c-0.171,0.205-0.378,0.389-0.624,0.549c-0.246,0.16-0.524,0.286-0.834,0.376
			c-0.311,0.09-0.652,0.135-1.022,0.135c-0.361,0-0.699-0.038-1.015-0.113c-0.316-0.075-0.591-0.198-0.826-0.369
			c-0.236-0.17-0.419-0.393-0.549-0.669c-0.13-0.275-0.195-0.619-0.195-1.03c0-0.451,0.088-0.819,0.263-1.105
			c0.175-0.285,0.4-0.511,0.676-0.676c0.275-0.165,0.581-0.283,0.917-0.353c0.335-0.07,0.664-0.12,0.984-0.15
			c0.641-0.04,1.14-0.088,1.496-0.143c0.355-0.055,0.619-0.14,0.789-0.256c0.17-0.115,0.275-0.265,0.316-0.451
			c0.04-0.185,0.06-0.438,0.06-0.759c0-0.15-0.03-0.316-0.09-0.496c-0.06-0.18-0.168-0.346-0.323-0.496
			c-0.155-0.15-0.373-0.275-0.654-0.376c-0.28-0.1-0.641-0.15-1.082-0.15c-0.691,0-1.25,0.176-1.676,0.526
			c-0.426,0.351-0.659,0.862-0.699,1.533h-0.571c0.04-0.852,0.313-1.49,0.819-1.916c0.506-0.426,1.215-0.639,2.127-0.639
			c0.34,0,0.671,0.03,0.992,0.09c0.321,0.06,0.609,0.165,0.864,0.316c0.256,0.15,0.461,0.356,0.616,0.616
			c0.155,0.261,0.233,0.592,0.233,0.992V12.057z M110.568,9.096c-0.111,0.13-0.266,0.228-0.466,0.293
			c-0.201,0.065-0.428,0.113-0.684,0.143c-0.256,0.03-0.524,0.055-0.804,0.075c-0.281,0.02-0.561,0.05-0.842,0.09
			c-0.682,0.08-1.205,0.253-1.571,0.519c-0.366,0.266-0.549,0.689-0.549,1.27c0,0.471,0.168,0.869,0.503,1.195
			c0.335,0.326,0.844,0.489,1.526,0.489c0.651,0,1.167-0.117,1.548-0.353c0.381-0.235,0.671-0.506,0.872-0.811
			c0.2-0.306,0.328-0.601,0.383-0.887c0.055-0.285,0.083-0.478,0.083-0.578V9.096z"/>
		<path fill="#EC664F" d="M112.958,5.76h0.571v1.653h0.03c0.1-0.29,0.243-0.549,0.428-0.774c0.185-0.225,0.401-0.418,0.646-0.579
			c0.245-0.16,0.513-0.28,0.804-0.361c0.29-0.08,0.586-0.12,0.887-0.12c0.451,0,0.834,0.055,1.15,0.165
			c0.316,0.11,0.573,0.256,0.774,0.436c0.201,0.18,0.358,0.383,0.474,0.609c0.115,0.225,0.198,0.453,0.248,0.684
			c0.05,0.231,0.08,0.454,0.09,0.669c0.01,0.216,0.015,0.404,0.015,0.564v4.779h-0.571V8.6c0-0.2-0.015-0.443-0.045-0.729
			c-0.03-0.286-0.118-0.561-0.263-0.827c-0.145-0.265-0.366-0.493-0.661-0.684c-0.296-0.19-0.704-0.286-1.225-0.286
			c-0.431,0-0.819,0.08-1.165,0.241c-0.346,0.16-0.639,0.383-0.879,0.669c-0.24,0.285-0.423,0.626-0.549,1.022
			c-0.125,0.396-0.188,0.829-0.188,1.3v4.178h-0.571V5.76z"/>
		<path fill="#EC664F" d="M126.575,8.15c-0.03-0.34-0.118-0.641-0.263-0.902c-0.146-0.26-0.333-0.476-0.564-0.646
			c-0.231-0.17-0.498-0.3-0.804-0.391c-0.306-0.09-0.633-0.136-0.984-0.136c-0.481,0-0.907,0.098-1.277,0.293
			c-0.371,0.195-0.681,0.456-0.932,0.782c-0.251,0.326-0.441,0.696-0.571,1.112c-0.13,0.416-0.196,0.844-0.196,1.285
			c0,0.521,0.06,1.002,0.181,1.443c0.12,0.441,0.305,0.824,0.556,1.15s0.561,0.578,0.932,0.759c0.37,0.18,0.806,0.27,1.307,0.27
			c0.361,0,0.694-0.06,0.999-0.18c0.306-0.12,0.577-0.286,0.813-0.496c0.235-0.21,0.428-0.463,0.579-0.759
			c0.15-0.295,0.25-0.619,0.3-0.969h0.571c-0.06,0.461-0.188,0.872-0.384,1.232c-0.195,0.361-0.435,0.664-0.721,0.909
			c-0.285,0.245-0.611,0.434-0.976,0.564c-0.366,0.13-0.759,0.195-1.18,0.195c-0.631,0-1.17-0.113-1.616-0.338
			c-0.446-0.225-0.811-0.528-1.098-0.909c-0.285-0.381-0.495-0.819-0.631-1.315c-0.135-0.496-0.203-1.015-0.203-1.556
			c0-0.541,0.078-1.052,0.233-1.533c0.155-0.481,0.384-0.902,0.684-1.263c0.301-0.361,0.672-0.646,1.112-0.857
			c0.441-0.21,0.947-0.316,1.518-0.316c0.421,0,0.815,0.053,1.18,0.158c0.365,0.105,0.691,0.263,0.976,0.474
			c0.286,0.21,0.519,0.476,0.699,0.797c0.18,0.321,0.29,0.701,0.33,1.142H126.575z"/>
		<path fill="#EC664F" d="M128.784,9.697c-0.01,0.451,0.042,0.887,0.158,1.308c0.115,0.421,0.293,0.792,0.534,1.112
			c0.24,0.321,0.538,0.576,0.894,0.766c0.355,0.19,0.774,0.286,1.255,0.286c0.731,0,1.34-0.203,1.826-0.609
			c0.486-0.406,0.799-0.969,0.939-1.691h0.571c-0.15,0.912-0.514,1.606-1.09,2.082c-0.576,0.476-1.325,0.714-2.247,0.714
			c-0.561,0-1.057-0.103-1.488-0.308c-0.431-0.205-0.789-0.486-1.075-0.842c-0.286-0.355-0.501-0.771-0.646-1.247
			c-0.145-0.476-0.213-0.979-0.203-1.51c-0.01-0.531,0.053-1.047,0.188-1.548c0.135-0.501,0.345-0.947,0.631-1.337
			c0.286-0.391,0.644-0.704,1.075-0.939c0.43-0.235,0.937-0.353,1.518-0.353c0.601,0,1.122,0.11,1.563,0.331
			c0.441,0.22,0.801,0.518,1.082,0.894c0.28,0.376,0.483,0.814,0.609,1.315c0.125,0.501,0.173,1.027,0.143,1.578H128.784z
			 M134.45,9.202c-0.01-0.401-0.08-0.792-0.21-1.172c-0.131-0.381-0.316-0.714-0.556-0.999c-0.241-0.286-0.534-0.516-0.88-0.691
			c-0.345-0.175-0.739-0.263-1.179-0.263c-0.431,0-0.814,0.09-1.15,0.271c-0.335,0.18-0.624,0.418-0.864,0.714
			c-0.241,0.296-0.431,0.631-0.571,1.007c-0.14,0.376-0.225,0.754-0.255,1.135H134.45z"/>
	</g>
	<g>
		<path fill="#EC664F" d="M78.877,13.651c-0.141-0.001-0.25-0.112-0.248-0.253l0.021-2.579l-2.252-0.017
			c-0.141-0.001-0.25-0.112-0.248-0.253l0.006-0.805c0.001-0.141,0.111-0.25,0.252-0.248l2.252,0.017l0.005-0.665l-2.252-0.017
			c-0.141-0.001-0.249-0.112-0.248-0.252l0.006-0.814c0.001-0.132,0.111-0.248,0.252-0.247l1.673,0.013l-2.475-4.539
			c-0.039-0.079-0.038-0.172,0.002-0.25c0.047-0.079,0.134-0.124,0.22-0.124L77.36,2.63c0.094,0,0.18,0.056,0.226,0.142l1.656,3.335
			c0.185,0.369,0.308,0.683,0.43,0.981c0.136-0.335,0.311-0.662,0.462-1.005l1.519-3.272c0.04-0.093,0.134-0.147,0.228-0.146
			l1.493,0.011c0.086,0,0.164,0.048,0.21,0.127c0.046,0.071,0.046,0.164,0.006,0.243l-2.482,4.507l1.681,0.014
			c0.141,0.001,0.25,0.12,0.248,0.252l-0.006,0.814c-0.001,0.14-0.112,0.248-0.252,0.247l-2.267-0.017l-0.005,0.665l2.267,0.017
			c0.141,0.001,0.25,0.112,0.248,0.253l-0.006,0.805c-0.001,0.141-0.111,0.25-0.252,0.248l-2.267-0.018l-0.021,2.581
			c-0.001,0.141-0.119,0.25-0.252,0.248L78.877,13.651z"/>
	</g>
</g>
</svg>
